<?xml version="1.0" encoding="UTF-8" standalone="no"?>
<!-- Created with Inkscape (http://www.inkscape.org/) -->

<svg
   width="483.914"
   height="541.84192"
   viewBox="0 0 483.914 541.84192"
   version="1.1"
   id="svg5"
   xml:space="preserve"
   xmlns:inkscape="http://www.inkscape.org/namespaces/inkscape"
   xmlns:sodipodi="http://sodipodi.sourceforge.net/DTD/sodipodi-0.dtd"
   xmlns="http://www.w3.org/2000/svg"
   xmlns:svg="http://www.w3.org/2000/svg"><sodipodi:namedview
     id="namedview7"
     pagecolor="#ffffff"
     bordercolor="#000000"
     borderopacity="0.25"
     inkscape:showpageshadow="2"
     inkscape:pageopacity="0.0"
     inkscape:pagecheckerboard="0"
     inkscape:deskcolor="#d1d1d1"
     inkscape:document-units="px"
     showgrid="false"
     showborder="false" /><defs
     id="defs2" /><g
     inkscape:label="Camada 1"
     inkscape:groupmode="layer"
     id="layer1"
     transform="translate(-311.72668,-235.30704)"><path
       id="rect1767"
       style="fill:#999999;fill-opacity:1;stroke-width:0.999998"
       d="m 311.72667,235.30704 v 541.8418 H 795.6407 V 235.30704 Z M 731.01573,560.5297 c 0.53472,-0.0793 1.08498,-0.0341 1.60352,0.14258 0.45822,0.15608 1.80189,0.9442 3.47656,2.04101 1.57947,1.03446 2.74177,1.85353 5.63476,3.9707 2.86494,2.09665 4.23616,3.06388 5.49219,3.8711 1.55811,1.00135 1.63714,1.05947 1.89453,1.36914 0.58047,0.69836 0.80286,1.30054 0.80274,2.18164 0,0.6999 -0.14671,1.24835 -0.4707,1.75391 -0.54258,0.84664 -5.26234,6.80352 -8.03711,10.14453 -14.22183,17.12402 -31.26051,34.02756 -52.0625,51.65234 l -2.03321,1.72461 1.61914,1.375 c 20.58684,17.47806 39.16694,36.05439 55.60938,55.59766 2.7068,3.21726 4.74131,5.70358 4.94336,6.04492 0.30169,0.50968 0.43173,1.02367 0.43164,1.69531 0,1.16556 -0.35955,1.81949 -1.62891,2.96289 -3.27874,2.95338 -6.73938,5.54664 -10.54101,7.89844 -1.99091,1.23165 -5.25489,3.00972 -5.85157,3.1875 -0.32,0.0953 -1.16376,0.16041 -1.47461,0.11328 -0.66224,-0.10041 -1.5288,-0.5406 -1.94726,-0.99024 -0.11072,-0.11895 -0.67511,-0.82168 -1.25586,-1.56054 -15.20042,-19.33855 -33.30162,-37.87927 -52.65625,-53.93555 -4.05866,-3.367 -7.67538,-6.24368 -7.77539,-6.18555 -0.0413,0.024 -1.99438,1.29961 -4.33984,2.83594 -18.0807,11.84319 -29.26995,18.62947 -40.99805,24.86719 -19.15521,10.18792 -37.29226,17.30213 -55.79883,21.88672 -12.30993,3.0495 -25.00051,4.99711 -37.79297,5.79687 -5.42729,0.3393 -9.47498,0.44009 -15.79883,0.39649 -4.79254,-0.0331 -5.98483,-0.0624 -9.33593,-0.23633 -32.65813,-1.69501 -62.84332,-11.10465 -91.78125,-28.61133 -14.69433,-8.88968 -29.12462,-19.8015 -45.48829,-34.39453 -2.52311,-2.25011 -6.55941,-5.92186 -7.06054,-6.42383 -1.11395,-1.11584 -1.26143,-2.87281 -0.35352,-4.21875 0.37712,-0.55907 8.62401,-7.93681 14.32617,-12.8164 16.36464,-14.00396 31.06424,-24.46405 46.03711,-32.75977 25.80093,-14.29501 52.87847,-22.1218 82.0586,-23.7168 7.82,-0.42744 16.82747,-0.42576 25.00586,0.002 31.91411,1.66915 61.73684,9.81025 91.68554,25.02734 14.35989,7.29632 28.547,15.91391 47.21875,28.68555 1.02276,0.69957 1.89986,1.28789 1.94922,1.30664 0.052,0.0197 0.80609,-0.49864 1.79102,-1.23047 9.8215,-7.29767 19.15376,-15.4353 29.16211,-25.42969 8.88188,-8.86949 17.4424,-18.26106 29.63672,-32.51953 1.35628,-1.58587 2.41972,-2.77409 2.5957,-2.89844 0.454,-0.32081 0.9731,-0.52424 1.50781,-0.60351 z m -219.4707,32.1289 c -14.48515,0.48127 -29.10766,2.57019 -42.0957,6.01368 -21.78441,5.77564 -41.38246,15.30535 -63.32227,30.79296 -4.34084,3.06425 -12.76701,9.29514 -12.75977,9.43555 0.003,0.0513 5.26203,4.20661 7.42578,5.86719 15.8004,12.12601 29.94823,20.83027 44.50977,27.38281 17.7862,8.00361 36.07936,12.61576 55.38672,13.96484 5.91888,0.41358 11.5163,0.51439 17.83203,0.32032 20.32296,-0.62449 40.3322,-4.38224 59.60742,-11.19141 17.51407,-6.18702 34.64981,-14.78921 55.53516,-27.88086 3.88266,-2.43379 11.42383,-7.27507 11.61328,-7.45508 0.0856,-0.0813 -0.63555,-0.59921 -4.86133,-3.48828 -16.15162,-11.04248 -30.76069,-19.48779 -44.93945,-25.97851 -23.31409,-10.67269 -46.30399,-16.49096 -69.75,-17.6543 -4.04606,-0.20076 -10.30788,-0.25762 -14.18164,-0.12891 z"
       inkscape:export-filename="peixe.svg"
       inkscape:export-xdpi="96"
       inkscape:export-ydpi="96" /></g></svg>
